<svg class="logo" id="messenger-logo" enable-background="new 0 0 512.058 512.058" height="512" viewBox="0 0 512.058 512.058" width="512" xmlns="http://www.w3.org/2000/svg"><path d="m19.999 512.033c-10.757.179-20.189-9.204-19.996-20.002l.012-233.596c-1.571-228.697 276.736-344.968 437.966-182.879 159.524 161.859 44.352 436.676-183.165 436.475-40.3.001-78.774-9.038-114.35-26.866-33.992-17.035-75.147-10.167-102.409 17.097l-3.912 3.912c-3.826 3.825-8.942 5.858-14.146 5.859zm81.271-76.151c19.422 0 38.962 4.423 57.119 13.523 30.017 15.044 62.551 22.658 96.653 22.626 191.181.283 289.155-233.256 154.516-368.33-136.568-136.67-370.535-38.778-369.544 154.457.001.064.001.129.001.193l-.01 193.067c18.952-10.248 40.036-15.536 61.265-15.536zm56.043-80.824c-10.753 0-21.543-3.412-30.591-10.355-20.72-15.902-25.863-44.569-11.963-66.683l53.723-85.464c16.166-26.789 54.253-33.907 78.937-14.607l40.725 30.571 32.022-31.967c17.807-17.777 46.172-19.481 65.979-3.964 20.172 15.805 25.103 44.084 11.47 65.781l-54.055 86.026c-8.071 12.934-21.326 21.967-36.332 24.732-14.951 2.752-30.479-.935-42.607-10.122-.027-.021-.056-.043-.084-.064l-39.773-30.465-31.812 31.86c-9.728 9.745-22.656 14.721-35.639 14.721zm-6.237-42.088c4.091 3.141 9.926 2.756 13.569-.894l44.204-44.271c7.093-7.103 18.347-7.849 26.315-1.746l53.65 41.095c3.232 2.432 7.192 3.368 11.164 2.638 4.041-.745 7.479-3.098 9.68-6.624l54.087-86.078c2.696-4.292 1.721-9.886-2.27-13.013-3.918-3.068-9.53-2.731-13.05.784l-44.294 44.218c-7.041 7.03-18.18 7.813-26.137 1.841l-54.662-41.034c-3.31-2.509-7.291-3.452-11.273-2.721-4.04.745-7.478 3.097-9.679 6.624l-53.757 85.519c-2.847 4.53-1.793 10.404 2.453 13.662z"/></svg>