<svg class="logo" id="twitter-logo" enable-background="new 0 0 512.186 512.186" height="512" viewBox="0 0 512.186 512.186" width="512" xmlns="http://www.w3.org/2000/svg"><path d="m399.094 185.094c26.536 1.056 26.516 38.953 0 40h-6v26.132c0 83.04-67.723 150.72-150.964 150.868-50.372-.091-97.294-25.053-125.589-66.774-6.199-9.142-3.814-21.578 5.327-27.778 9.145-6.199 21.579-3.812 27.778 5.327 20.858 30.757 55.432 49.159 92.483 49.226 61.153-.109 110.964-49.845 110.964-110.868v-61.567c0-21.064-16.534-37.564-37.643-37.564-20.948 0-37.357 16.252-37.357 37 0 11.046-8.954 20-20 20s-20-8.954-20-20c-.111-69.067 83.967-102.562 132.382-54.267 13.511 13.539 21.398 31.245 22.488 50.267h6.131zm112.988 73.511c1.446 137.183-119.891 256.266-256.927 253.489h-.247c-40.3.001-78.774-9.038-114.35-26.866-33.992-17.035-75.147-10.167-102.409 17.097l-3.912 3.912c-3.826 3.825-8.942 5.857-14.146 5.858-10.757.179-20.189-9.204-19.996-20.002l.012-233.596c-4.221-137.947 118.017-261.356 255.989-258.401 139.248-2.882 260.144 119.458 255.986 258.509zm-102.43-154.84c-136.616-136.691-370.532-38.751-369.547 154.455.001.064.001.129.001.193l-.01 193.067c36.679-19.832 80.833-20.861 118.384-2.013 29.959 15.014 62.408 22.626 96.446 22.626h.207c191.214.29 289.134-233.282 154.519-368.328zm-167.337 170.23c8.744-6.75 10.36-19.31 3.611-28.053-6.748-8.742-19.308-10.36-28.053-3.611-25.46 20.215-65.406 10.778-78.616-19.271-.109-.236-.337-.728.078-1.378.375-.588.801-.588 1.083-.588h38.676c26.536-1.056 26.516-38.953 0-40h-38.676c-29.787-.432-50.375 32.011-37.44 58.812 15.232 32.808 47.081 53.188 83.116 53.188 20.593 0 40.035-6.604 56.221-19.099z"/></svg>