<svg class="logo" id="whatsapp-logo" enable-background="new 0 0 512.055 512.055" height="512" viewBox="0 0 512.055 512.055" width="512" xmlns="http://www.w3.org/2000/svg"><path d="m19.996 512.033c-2.577 0-5.175-.498-7.65-1.523-7.473-3.096-12.346-10.389-12.346-18.479l.011-233.584c-1.581-228.703 276.733-344.983 437.968-182.891 159.524 161.86 44.351 436.677-183.166 436.475-40.3.001-78.774-9.038-114.349-26.866-33.994-17.036-75.149-10.165-102.41 17.097l-3.912 3.912c-3.826 3.825-8.942 5.858-14.146 5.859zm81.271-76.151c19.422 0 38.962 4.423 57.119 13.523 29.959 15.014 62.408 22.626 96.446 22.626.064.001.144.001.207 0 191.182.283 289.155-233.256 154.517-368.33-136.569-136.67-370.536-38.778-369.546 154.457 0 .064.001.129.001.193l-.009 193.067c18.952-10.248 40.036-15.536 61.265-15.536zm183.824-28.973c-45.863-.231-89.741-19.738-124.171-53.673-.042-.041-.083-.083-.124-.124-60.812-58.958-75.602-162.346-13.08-222.855 2.655-2.65 9.476-9.24 13.614-12.691 19.853-16.563 48.618-15.286 66.908 2.973.079.079.158.159.236.239l24.026 24.807c24.623 23.652 21.843 61.384-10.657 74.009-6.295 2.526-10.337 4.679-11.951 5.624-8.478 8.979-6.627 14.301-5.505 17.528 2.989 8.595 11.922 18.298 20.267 26.657 8.335 8.32 18.038 17.254 26.633 20.242 3.226 1.12 8.549 2.975 17.527-5.505.945-1.613 3.099-5.656 5.625-11.95 5.718-14.243 16.303-23.605 29.805-26.361 15.011-3.065 31.112 2.658 44.204 15.704l24.805 24.025c.081.078.161.157.24.236 18.258 18.289 19.536 47.054 2.973 66.909-3.455 4.141-10.042 10.959-12.691 13.613-26.408 26.454-61.027 40.593-98.684 40.593zm-95.949-82.02c44.38 43.936 118.702 60.872 166.325 13.167 3.171-3.177 8.355-8.665 10.286-10.979 3.2-3.836 2.987-9.376-.481-12.937l-24.759-23.981c-.081-.078-.161-.157-.24-.236-3.605-3.611-6.488-4.652-7.658-4.854-.265.367-.652 1.019-1.054 2.021-2.727 6.793-8.095 18.985-13.406 24.306-22.595 22.635-45.102 21.208-60.004 16.029-16.17-5.623-29.637-17.616-41.78-29.739-12.147-12.168-24.141-25.635-29.764-41.805-5.181-14.901-6.606-37.407 16.029-60.004 5.316-5.31 17.511-10.679 24.307-13.406 1.001-.402 1.652-.789 2.019-1.054-.201-1.17-1.241-4.053-4.853-7.658-.079-.079-.158-.159-.236-.239l-23.982-24.76c-3.56-3.469-9.1-3.681-12.937-.479-2.313 1.929-7.8 7.112-10.979 10.284-47.705 47.624-30.769 121.945 13.167 166.324zm99.253-40.067s0 0 0 0zm-59.183-59.186s-.001 0-.001.001c0-.001 0-.001.001-.001z"/></svg>